# xmcd
#
# Track frame offsets:
# 150
# 30557
# 53287
# 70867
# 115425
# 140222
# 166467
# 184615
# 206917
#
# Disc length: 3022 seconds
#
#
# Revision: 0
# Processed by: cddbd v1.4PL0 Copyright (c) Steve Scherf et al.
# Submitted via: FreeRIP 2.12 
#
DISCID=810bcc09
DTITLE=陳明章 - 陳明章的音樂
DYEAR=1900
DGENRE=
TTITLE0=雲游四海
TTITLE1=家族
TTITLE2=紅磚橋
TTITLE3=慶瑞陽(二)
TTITLE4=思想起(訴版)
TTITLE5=酒空成仔的那條歌
TTITLE6=慢慢來唱
TTITLE7=黑夜的雲
TTITLE8=賣魚賣肉
EXTD=
EXTT0=
EXTT1=
EXTT2=
EXTT3=
EXTT4=
EXTT5=
EXTT6=
EXTT7=
EXTT8=
PLAYORDER=
